<?xml version="1.0" encoding="utf-8" standalone="no"?>
<!DOCTYPE svg PUBLIC "-//W3C//DTD SVG 1.1//EN"
  "http://www.w3.org/Graphics/SVG/1.1/DTD/svg11.dtd">
<svg xmlns:xlink="http://www.w3.org/1999/xlink" width="2160pt" height="2160pt" viewBox="0 0 2160 2160" xmlns="http://www.w3.org/2000/svg" version="1.1">
 <metadata>
  <rdf:RDF xmlns:dc="http://purl.org/dc/elements/1.1/" xmlns:cc="http://creativecommons.org/ns#" xmlns:rdf="http://www.w3.org/1999/02/22-rdf-syntax-ns#">
   <cc:Work>
    <dc:type rdf:resource="http://purl.org/dc/dcmitype/StillImage"/>
    <dc:date>2023-05-02T12:18:58.331912</dc:date>
    <dc:format>image/svg+xml</dc:format>
    <dc:creator>
     <cc:Agent>
      <dc:title>Matplotlib v3.7.1, https://matplotlib.org/</dc:title>
     </cc:Agent>
    </dc:creator>
   </cc:Work>
  </rdf:RDF>
 </metadata>
 <defs>
  <style type="text/css">*{stroke-linejoin: round; stroke-linecap: butt}</style>
 </defs>
 <g id="figure_1">
  <g id="patch_1">
   <path d="M 0 2160 
L 2160 2160 
L 2160 0 
L 0 0 
z
" style="fill: #ffffff"/>
  </g>
  <g id="axes_1">
   <g id="patch_2">
    <path d="M 270 1922.4 
L 1944 1922.4 
L 1944 259.2 
L 270 259.2 
z
" style="fill: #eaeaf2"/>
   </g>
   <g id="matplotlib.axis_1">
    <g id="xtick_1">
     <g id="line2d_1">
      <path d="M 270 1922.4 
L 270 259.2 
" clip-path="url(#p2d2ead9e03)" style="fill: none; stroke: #ffffff; stroke-linecap: round"/>
     </g>
     <g id="text_1">
      <!-- 0.0 -->
      <g style="fill: #262626" transform="translate(247.065 1955.520781) scale(0.33 -0.33)">
       <defs>
        <path id="ArialMT-30" d="M 266 2259 
Q 266 3072 433 3567 
Q 600 4063 929 4331 
Q 1259 4600 1759 4600 
Q 2128 4600 2406 4451 
Q 2684 4303 2865 4023 
Q 3047 3744 3150 3342 
Q 3253 2941 3253 2259 
Q 3253 1453 3087 958 
Q 2922 463 2592 192 
Q 2263 -78 1759 -78 
Q 1097 -78 719 397 
Q 266 969 266 2259 
z
M 844 2259 
Q 844 1131 1108 757 
Q 1372 384 1759 384 
Q 2147 384 2411 759 
Q 2675 1134 2675 2259 
Q 2675 3391 2411 3762 
Q 2147 4134 1753 4134 
Q 1366 4134 1134 3806 
Q 844 3388 844 2259 
z
" transform="scale(0.015625)"/>
        <path id="ArialMT-2e" d="M 581 0 
L 581 641 
L 1222 641 
L 1222 0 
L 581 0 
z
" transform="scale(0.015625)"/>
       </defs>
       <use xlink:href="#ArialMT-30"/>
       <use xlink:href="#ArialMT-2e" x="55.615234"/>
       <use xlink:href="#ArialMT-30" x="83.398438"/>
      </g>
     </g>
    </g>
    <g id="xtick_2">
     <g id="line2d_2">
      <path d="M 604.8 1922.4 
L 604.8 259.2 
" clip-path="url(#p2d2ead9e03)" style="fill: none; stroke: #ffffff; stroke-linecap: round"/>
     </g>
     <g id="text_2">
      <!-- 0.2 -->
      <g style="fill: #262626" transform="translate(581.865 1955.520781) scale(0.33 -0.33)">
       <defs>
        <path id="ArialMT-32" d="M 3222 541 
L 3222 0 
L 194 0 
Q 188 203 259 391 
Q 375 700 629 1000 
Q 884 1300 1366 1694 
Q 2113 2306 2375 2664 
Q 2638 3022 2638 3341 
Q 2638 3675 2398 3904 
Q 2159 4134 1775 4134 
Q 1369 4134 1125 3890 
Q 881 3647 878 3216 
L 300 3275 
Q 359 3922 746 4261 
Q 1134 4600 1788 4600 
Q 2447 4600 2831 4234 
Q 3216 3869 3216 3328 
Q 3216 3053 3103 2787 
Q 2991 2522 2730 2228 
Q 2469 1934 1863 1422 
Q 1356 997 1212 845 
Q 1069 694 975 541 
L 3222 541 
z
" transform="scale(0.015625)"/>
       </defs>
       <use xlink:href="#ArialMT-30"/>
       <use xlink:href="#ArialMT-2e" x="55.615234"/>
       <use xlink:href="#ArialMT-32" x="83.398438"/>
      </g>
     </g>
    </g>
    <g id="xtick_3">
     <g id="line2d_3">
      <path d="M 939.6 1922.4 
L 939.6 259.2 
" clip-path="url(#p2d2ead9e03)" style="fill: none; stroke: #ffffff; stroke-linecap: round"/>
     </g>
     <g id="text_3">
      <!-- 0.4 -->
      <g style="fill: #262626" transform="translate(916.665 1955.520781) scale(0.33 -0.33)">
       <defs>
        <path id="ArialMT-34" d="M 2069 0 
L 2069 1097 
L 81 1097 
L 81 1613 
L 2172 4581 
L 2631 4581 
L 2631 1613 
L 3250 1613 
L 3250 1097 
L 2631 1097 
L 2631 0 
L 2069 0 
z
M 2069 1613 
L 2069 3678 
L 634 1613 
L 2069 1613 
z
" transform="scale(0.015625)"/>
       </defs>
       <use xlink:href="#ArialMT-30"/>
       <use xlink:href="#ArialMT-2e" x="55.615234"/>
       <use xlink:href="#ArialMT-34" x="83.398438"/>
      </g>
     </g>
    </g>
    <g id="xtick_4">
     <g id="line2d_4">
      <path d="M 1274.4 1922.4 
L 1274.4 259.2 
" clip-path="url(#p2d2ead9e03)" style="fill: none; stroke: #ffffff; stroke-linecap: round"/>
     </g>
     <g id="text_4">
      <!-- 0.6 -->
      <g style="fill: #262626" transform="translate(1251.465 1955.520781) scale(0.33 -0.33)">
       <defs>
        <path id="ArialMT-36" d="M 3184 3459 
L 2625 3416 
Q 2550 3747 2413 3897 
Q 2184 4138 1850 4138 
Q 1581 4138 1378 3988 
Q 1113 3794 959 3422 
Q 806 3050 800 2363 
Q 1003 2672 1297 2822 
Q 1591 2972 1913 2972 
Q 2475 2972 2870 2558 
Q 3266 2144 3266 1488 
Q 3266 1056 3080 686 
Q 2894 316 2569 119 
Q 2244 -78 1831 -78 
Q 1128 -78 684 439 
Q 241 956 241 2144 
Q 241 3472 731 4075 
Q 1159 4600 1884 4600 
Q 2425 4600 2770 4297 
Q 3116 3994 3184 3459 
z
M 888 1484 
Q 888 1194 1011 928 
Q 1134 663 1356 523 
Q 1578 384 1822 384 
Q 2178 384 2434 671 
Q 2691 959 2691 1453 
Q 2691 1928 2437 2201 
Q 2184 2475 1800 2475 
Q 1419 2475 1153 2201 
Q 888 1928 888 1484 
z
" transform="scale(0.015625)"/>
       </defs>
       <use xlink:href="#ArialMT-30"/>
       <use xlink:href="#ArialMT-2e" x="55.615234"/>
       <use xlink:href="#ArialMT-36" x="83.398438"/>
      </g>
     </g>
    </g>
    <g id="xtick_5">
     <g id="line2d_5">
      <path d="M 1609.2 1922.4 
L 1609.2 259.2 
" clip-path="url(#p2d2ead9e03)" style="fill: none; stroke: #ffffff; stroke-linecap: round"/>
     </g>
     <g id="text_5">
      <!-- 0.8 -->
      <g style="fill: #262626" transform="translate(1586.265 1955.520781) scale(0.33 -0.33)">
       <defs>
        <path id="ArialMT-38" d="M 1131 2484 
Q 781 2613 612 2850 
Q 444 3088 444 3419 
Q 444 3919 803 4259 
Q 1163 4600 1759 4600 
Q 2359 4600 2725 4251 
Q 3091 3903 3091 3403 
Q 3091 3084 2923 2848 
Q 2756 2613 2416 2484 
Q 2838 2347 3058 2040 
Q 3278 1734 3278 1309 
Q 3278 722 2862 322 
Q 2447 -78 1769 -78 
Q 1091 -78 675 323 
Q 259 725 259 1325 
Q 259 1772 486 2073 
Q 713 2375 1131 2484 
z
M 1019 3438 
Q 1019 3113 1228 2906 
Q 1438 2700 1772 2700 
Q 2097 2700 2305 2904 
Q 2513 3109 2513 3406 
Q 2513 3716 2298 3927 
Q 2084 4138 1766 4138 
Q 1444 4138 1231 3931 
Q 1019 3725 1019 3438 
z
M 838 1322 
Q 838 1081 952 856 
Q 1066 631 1291 507 
Q 1516 384 1775 384 
Q 2178 384 2440 643 
Q 2703 903 2703 1303 
Q 2703 1709 2433 1975 
Q 2163 2241 1756 2241 
Q 1359 2241 1098 1978 
Q 838 1716 838 1322 
z
" transform="scale(0.015625)"/>
       </defs>
       <use xlink:href="#ArialMT-30"/>
       <use xlink:href="#ArialMT-2e" x="55.615234"/>
       <use xlink:href="#ArialMT-38" x="83.398438"/>
      </g>
     </g>
    </g>
    <g id="xtick_6">
     <g id="line2d_6">
      <path d="M 1944 1922.4 
L 1944 259.2 
" clip-path="url(#p2d2ead9e03)" style="fill: none; stroke: #ffffff; stroke-linecap: round"/>
     </g>
     <g id="text_6">
      <!-- 1.0 -->
      <g style="fill: #262626" transform="translate(1921.065 1955.520781) scale(0.33 -0.33)">
       <defs>
        <path id="ArialMT-31" d="M 2384 0 
L 1822 0 
L 1822 3584 
Q 1619 3391 1289 3197 
Q 959 3003 697 2906 
L 697 3450 
Q 1169 3672 1522 3987 
Q 1875 4303 2022 4600 
L 2384 4600 
L 2384 0 
z
" transform="scale(0.015625)"/>
       </defs>
       <use xlink:href="#ArialMT-31"/>
       <use xlink:href="#ArialMT-2e" x="55.615234"/>
       <use xlink:href="#ArialMT-30" x="83.398438"/>
      </g>
     </g>
    </g>
    <g id="text_7">
     <!-- False positive rate -->
     <g style="fill: #262626" transform="translate(960.944062 1991.847656) scale(0.36 -0.36)">
      <defs>
       <path id="ArialMT-46" d="M 525 0 
L 525 4581 
L 3616 4581 
L 3616 4041 
L 1131 4041 
L 1131 2622 
L 3281 2622 
L 3281 2081 
L 1131 2081 
L 1131 0 
L 525 0 
z
" transform="scale(0.015625)"/>
       <path id="ArialMT-61" d="M 2588 409 
Q 2275 144 1986 34 
Q 1697 -75 1366 -75 
Q 819 -75 525 192 
Q 231 459 231 875 
Q 231 1119 342 1320 
Q 453 1522 633 1644 
Q 813 1766 1038 1828 
Q 1203 1872 1538 1913 
Q 2219 1994 2541 2106 
Q 2544 2222 2544 2253 
Q 2544 2597 2384 2738 
Q 2169 2928 1744 2928 
Q 1347 2928 1158 2789 
Q 969 2650 878 2297 
L 328 2372 
Q 403 2725 575 2942 
Q 747 3159 1072 3276 
Q 1397 3394 1825 3394 
Q 2250 3394 2515 3294 
Q 2781 3194 2906 3042 
Q 3031 2891 3081 2659 
Q 3109 2516 3109 2141 
L 3109 1391 
Q 3109 606 3145 398 
Q 3181 191 3288 0 
L 2700 0 
Q 2613 175 2588 409 
z
M 2541 1666 
Q 2234 1541 1622 1453 
Q 1275 1403 1131 1340 
Q 988 1278 909 1158 
Q 831 1038 831 891 
Q 831 666 1001 516 
Q 1172 366 1500 366 
Q 1825 366 2078 508 
Q 2331 650 2450 897 
Q 2541 1088 2541 1459 
L 2541 1666 
z
" transform="scale(0.015625)"/>
       <path id="ArialMT-6c" d="M 409 0 
L 409 4581 
L 972 4581 
L 972 0 
L 409 0 
z
" transform="scale(0.015625)"/>
       <path id="ArialMT-73" d="M 197 991 
L 753 1078 
Q 800 744 1014 566 
Q 1228 388 1613 388 
Q 2000 388 2187 545 
Q 2375 703 2375 916 
Q 2375 1106 2209 1216 
Q 2094 1291 1634 1406 
Q 1016 1563 777 1677 
Q 538 1791 414 1992 
Q 291 2194 291 2438 
Q 291 2659 392 2848 
Q 494 3038 669 3163 
Q 800 3259 1026 3326 
Q 1253 3394 1513 3394 
Q 1903 3394 2198 3281 
Q 2494 3169 2634 2976 
Q 2775 2784 2828 2463 
L 2278 2388 
Q 2241 2644 2061 2787 
Q 1881 2931 1553 2931 
Q 1166 2931 1000 2803 
Q 834 2675 834 2503 
Q 834 2394 903 2306 
Q 972 2216 1119 2156 
Q 1203 2125 1616 2013 
Q 2213 1853 2448 1751 
Q 2684 1650 2818 1456 
Q 2953 1263 2953 975 
Q 2953 694 2789 445 
Q 2625 197 2315 61 
Q 2006 -75 1616 -75 
Q 969 -75 630 194 
Q 291 463 197 991 
z
" transform="scale(0.015625)"/>
       <path id="ArialMT-65" d="M 2694 1069 
L 3275 997 
Q 3138 488 2766 206 
Q 2394 -75 1816 -75 
Q 1088 -75 661 373 
Q 234 822 234 1631 
Q 234 2469 665 2931 
Q 1097 3394 1784 3394 
Q 2450 3394 2872 2941 
Q 3294 2488 3294 1666 
Q 3294 1616 3291 1516 
L 816 1516 
Q 847 969 1125 678 
Q 1403 388 1819 388 
Q 2128 388 2347 550 
Q 2566 713 2694 1069 
z
M 847 1978 
L 2700 1978 
Q 2663 2397 2488 2606 
Q 2219 2931 1791 2931 
Q 1403 2931 1139 2672 
Q 875 2413 847 1978 
z
" transform="scale(0.015625)"/>
       <path id="ArialMT-20" transform="scale(0.015625)"/>
       <path id="ArialMT-70" d="M 422 -1272 
L 422 3319 
L 934 3319 
L 934 2888 
Q 1116 3141 1344 3267 
Q 1572 3394 1897 3394 
Q 2322 3394 2647 3175 
Q 2972 2956 3137 2557 
Q 3303 2159 3303 1684 
Q 3303 1175 3120 767 
Q 2938 359 2589 142 
Q 2241 -75 1856 -75 
Q 1575 -75 1351 44 
Q 1128 163 984 344 
L 984 -1272 
L 422 -1272 
z
M 931 1641 
Q 931 1000 1190 694 
Q 1450 388 1819 388 
Q 2194 388 2461 705 
Q 2728 1022 2728 1688 
Q 2728 2322 2467 2637 
Q 2206 2953 1844 2953 
Q 1484 2953 1207 2617 
Q 931 2281 931 1641 
z
" transform="scale(0.015625)"/>
       <path id="ArialMT-6f" d="M 213 1659 
Q 213 2581 725 3025 
Q 1153 3394 1769 3394 
Q 2453 3394 2887 2945 
Q 3322 2497 3322 1706 
Q 3322 1066 3130 698 
Q 2938 331 2570 128 
Q 2203 -75 1769 -75 
Q 1072 -75 642 372 
Q 213 819 213 1659 
z
M 791 1659 
Q 791 1022 1069 705 
Q 1347 388 1769 388 
Q 2188 388 2466 706 
Q 2744 1025 2744 1678 
Q 2744 2294 2464 2611 
Q 2184 2928 1769 2928 
Q 1347 2928 1069 2612 
Q 791 2297 791 1659 
z
" transform="scale(0.015625)"/>
       <path id="ArialMT-69" d="M 425 3934 
L 425 4581 
L 988 4581 
L 988 3934 
L 425 3934 
z
M 425 0 
L 425 3319 
L 988 3319 
L 988 0 
L 425 0 
z
" transform="scale(0.015625)"/>
       <path id="ArialMT-74" d="M 1650 503 
L 1731 6 
Q 1494 -44 1306 -44 
Q 1000 -44 831 53 
Q 663 150 594 308 
Q 525 466 525 972 
L 525 2881 
L 113 2881 
L 113 3319 
L 525 3319 
L 525 4141 
L 1084 4478 
L 1084 3319 
L 1650 3319 
L 1650 2881 
L 1084 2881 
L 1084 941 
Q 1084 700 1114 631 
Q 1144 563 1211 522 
Q 1278 481 1403 481 
Q 1497 481 1650 503 
z
" transform="scale(0.015625)"/>
       <path id="ArialMT-76" d="M 1344 0 
L 81 3319 
L 675 3319 
L 1388 1331 
Q 1503 1009 1600 663 
Q 1675 925 1809 1294 
L 2547 3319 
L 3125 3319 
L 1869 0 
L 1344 0 
z
" transform="scale(0.015625)"/>
       <path id="ArialMT-72" d="M 416 0 
L 416 3319 
L 922 3319 
L 922 2816 
Q 1116 3169 1280 3281 
Q 1444 3394 1641 3394 
Q 1925 3394 2219 3213 
L 2025 2691 
Q 1819 2813 1613 2813 
Q 1428 2813 1281 2702 
Q 1134 2591 1072 2394 
Q 978 2094 978 1738 
L 978 0 
L 416 0 
z
" transform="scale(0.015625)"/>
      </defs>
      <use xlink:href="#ArialMT-46"/>
      <use xlink:href="#ArialMT-61" x="61.083984"/>
      <use xlink:href="#ArialMT-6c" x="116.699219"/>
      <use xlink:href="#ArialMT-73" x="138.916016"/>
      <use xlink:href="#ArialMT-65" x="188.916016"/>
      <use xlink:href="#ArialMT-20" x="244.53125"/>
      <use xlink:href="#ArialMT-70" x="272.314453"/>
      <use xlink:href="#ArialMT-6f" x="327.929688"/>
      <use xlink:href="#ArialMT-73" x="383.544922"/>
      <use xlink:href="#ArialMT-69" x="433.544922"/>
      <use xlink:href="#ArialMT-74" x="455.761719"/>
      <use xlink:href="#ArialMT-69" x="483.544922"/>
      <use xlink:href="#ArialMT-76" x="505.761719"/>
      <use xlink:href="#ArialMT-65" x="555.761719"/>
      <use xlink:href="#ArialMT-20" x="611.376953"/>
      <use xlink:href="#ArialMT-72" x="639.160156"/>
      <use xlink:href="#ArialMT-61" x="672.460938"/>
      <use xlink:href="#ArialMT-74" x="728.076172"/>
      <use xlink:href="#ArialMT-65" x="755.859375"/>
     </g>
    </g>
   </g>
   <g id="matplotlib.axis_2">
    <g id="ytick_1">
     <g id="line2d_7">
      <path d="M 270 1922.4 
L 1944 1922.4 
" clip-path="url(#p2d2ead9e03)" style="fill: none; stroke: #ffffff; stroke-linecap: round"/>
     </g>
     <g id="text_8">
      <!-- 0.0 -->
      <g style="fill: #262626" transform="translate(214.63 1934.210391) scale(0.33 -0.33)">
       <use xlink:href="#ArialMT-30"/>
       <use xlink:href="#ArialMT-2e" x="55.615234"/>
       <use xlink:href="#ArialMT-30" x="83.398438"/>
      </g>
     </g>
    </g>
    <g id="ytick_2">
     <g id="line2d_8">
      <path d="M 270 1589.76 
L 1944 1589.76 
" clip-path="url(#p2d2ead9e03)" style="fill: none; stroke: #ffffff; stroke-linecap: round"/>
     </g>
     <g id="text_9">
      <!-- 0.2 -->
      <g style="fill: #262626" transform="translate(214.63 1601.570391) scale(0.33 -0.33)">
       <use xlink:href="#ArialMT-30"/>
       <use xlink:href="#ArialMT-2e" x="55.615234"/>
       <use xlink:href="#ArialMT-32" x="83.398438"/>
      </g>
     </g>
    </g>
    <g id="ytick_3">
     <g id="line2d_9">
      <path d="M 270 1257.12 
L 1944 1257.12 
" clip-path="url(#p2d2ead9e03)" style="fill: none; stroke: #ffffff; stroke-linecap: round"/>
     </g>
     <g id="text_10">
      <!-- 0.4 -->
      <g style="fill: #262626" transform="translate(214.63 1268.930391) scale(0.33 -0.33)">
       <use xlink:href="#ArialMT-30"/>
       <use xlink:href="#ArialMT-2e" x="55.615234"/>
       <use xlink:href="#ArialMT-34" x="83.398438"/>
      </g>
     </g>
    </g>
    <g id="ytick_4">
     <g id="line2d_10">
      <path d="M 270 924.48 
L 1944 924.48 
" clip-path="url(#p2d2ead9e03)" style="fill: none; stroke: #ffffff; stroke-linecap: round"/>
     </g>
     <g id="text_11">
      <!-- 0.6 -->
      <g style="fill: #262626" transform="translate(214.63 936.290391) scale(0.33 -0.33)">
       <use xlink:href="#ArialMT-30"/>
       <use xlink:href="#ArialMT-2e" x="55.615234"/>
       <use xlink:href="#ArialMT-36" x="83.398438"/>
      </g>
     </g>
    </g>
    <g id="ytick_5">
     <g id="line2d_11">
      <path d="M 270 591.84 
L 1944 591.84 
" clip-path="url(#p2d2ead9e03)" style="fill: none; stroke: #ffffff; stroke-linecap: round"/>
     </g>
     <g id="text_12">
      <!-- 0.8 -->
      <g style="fill: #262626" transform="translate(214.63 603.650391) scale(0.33 -0.33)">
       <use xlink:href="#ArialMT-30"/>
       <use xlink:href="#ArialMT-2e" x="55.615234"/>
       <use xlink:href="#ArialMT-38" x="83.398438"/>
      </g>
     </g>
    </g>
    <g id="ytick_6">
     <g id="line2d_12">
      <path d="M 270 259.2 
L 1944 259.2 
" clip-path="url(#p2d2ead9e03)" style="fill: none; stroke: #ffffff; stroke-linecap: round"/>
     </g>
     <g id="text_13">
      <!-- 1.0 -->
      <g style="fill: #262626" transform="translate(214.63 271.010391) scale(0.33 -0.33)">
       <use xlink:href="#ArialMT-31"/>
       <use xlink:href="#ArialMT-2e" x="55.615234"/>
       <use xlink:href="#ArialMT-30" x="83.398438"/>
      </g>
     </g>
    </g>
    <g id="text_14">
     <!-- True positive rate -->
     <g style="fill: #262626" transform="translate(203.475 1229.175) rotate(-90) scale(0.36 -0.36)">
      <defs>
       <path id="ArialMT-54" d="M 1659 0 
L 1659 4041 
L 150 4041 
L 150 4581 
L 3781 4581 
L 3781 4041 
L 2266 4041 
L 2266 0 
L 1659 0 
z
" transform="scale(0.015625)"/>
       <path id="ArialMT-75" d="M 2597 0 
L 2597 488 
Q 2209 -75 1544 -75 
Q 1250 -75 995 37 
Q 741 150 617 320 
Q 494 491 444 738 
Q 409 903 409 1263 
L 409 3319 
L 972 3319 
L 972 1478 
Q 972 1038 1006 884 
Q 1059 663 1231 536 
Q 1403 409 1656 409 
Q 1909 409 2131 539 
Q 2353 669 2445 892 
Q 2538 1116 2538 1541 
L 2538 3319 
L 3100 3319 
L 3100 0 
L 2597 0 
z
" transform="scale(0.015625)"/>
      </defs>
      <use xlink:href="#ArialMT-54"/>
      <use xlink:href="#ArialMT-72" x="57.333984"/>
      <use xlink:href="#ArialMT-75" x="90.634766"/>
      <use xlink:href="#ArialMT-65" x="146.25"/>
      <use xlink:href="#ArialMT-20" x="201.865234"/>
      <use xlink:href="#ArialMT-70" x="229.648438"/>
      <use xlink:href="#ArialMT-6f" x="285.263672"/>
      <use xlink:href="#ArialMT-73" x="340.878906"/>
      <use xlink:href="#ArialMT-69" x="390.878906"/>
      <use xlink:href="#ArialMT-74" x="413.095703"/>
      <use xlink:href="#ArialMT-69" x="440.878906"/>
      <use xlink:href="#ArialMT-76" x="463.095703"/>
      <use xlink:href="#ArialMT-65" x="513.095703"/>
      <use xlink:href="#ArialMT-20" x="568.710938"/>
      <use xlink:href="#ArialMT-72" x="596.494141"/>
      <use xlink:href="#ArialMT-61" x="629.794922"/>
      <use xlink:href="#ArialMT-74" x="685.410156"/>
      <use xlink:href="#ArialMT-65" x="713.193359"/>
     </g>
    </g>
   </g>
   <g id="line2d_13">
    <path d="M 270 1922.4 
L 278.810526 1922.4 
L 278.810526 1839.24 
L 296.431579 1839.24 
L 296.431579 1589.76 
L 358.105263 1589.76 
L 358.105263 1506.6 
L 419.778947 1506.6 
L 419.778947 1423.44 
L 437.4 1423.44 
L 437.4 1173.96 
L 481.452632 1173.96 
L 481.452632 1090.8 
L 543.126316 1090.8 
L 543.126316 1007.64 
L 622.421053 1007.64 
L 622.421053 924.48 
L 710.526316 924.48 
L 710.526316 841.32 
L 736.957895 841.32 
L 736.957895 758.16 
L 921.978947 758.16 
L 957.221053 758.16 
L 992.463158 758.16 
L 992.463158 591.84 
L 1001.273684 591.84 
L 1001.273684 508.68 
L 1045.326316 508.68 
L 1045.326316 425.52 
L 1089.378947 425.52 
L 1089.378947 342.36 
L 1265.589474 342.36 
L 1283.210526 342.36 
L 1441.8 342.36 
L 1459.421053 342.36 
L 1503.473684 342.36 
L 1529.905263 342.36 
L 1653.252632 342.36 
L 1670.873684 342.36 
L 1697.305263 342.36 
L 1697.305263 259.2 
L 1891.136842 259.2 
L 1908.757895 259.2 
L 1944 259.2 
" clip-path="url(#p2d2ead9e03)" style="fill: none; stroke: #a6cee3; stroke-width: 4; stroke-linecap: round"/>
   </g>
   <g id="line2d_14">
    <path d="M 270 1922.4 
L 275.873684 1922.4 
L 275.873684 1855.872 
L 287.621053 1855.872 
L 287.621053 1656.288 
L 316.989474 1656.288 
L 316.989474 1589.76 
L 340.484211 1589.76 
L 340.484211 1456.704 
L 405.094737 1456.704 
L 405.094737 1323.648 
L 422.715789 1323.648 
L 422.715789 1257.12 
L 440.336842 1257.12 
L 440.336842 1190.592 
L 475.578947 1190.592 
L 475.578947 1124.064 
L 510.821053 1124.064 
L 510.821053 1057.536 
L 528.442105 1057.536 
L 528.442105 991.008 
L 640.042105 991.008 
L 663.536842 991.008 
L 692.905263 991.008 
L 692.905263 857.952 
L 704.652632 857.952 
L 704.652632 791.424 
L 710.526316 791.424 
L 710.526316 658.368 
L 804.505263 658.368 
L 804.505263 591.84 
L 845.621053 591.84 
L 869.115789 591.84 
L 986.589474 591.84 
L 998.336842 591.84 
L 1015.957895 591.84 
L 1015.957895 525.312 
L 1080.568421 525.312 
L 1092.315789 525.312 
L 1104.063158 525.312 
L 1104.063158 458.784 
L 1239.157895 458.784 
L 1256.778947 458.784 
L 1485.852632 458.784 
L 1503.473684 458.784 
L 1515.221053 458.784 
L 1538.715789 458.784 
L 1550.463158 458.784 
L 1573.957895 458.784 
L 1573.957895 392.256 
L 1579.831579 392.256 
L 1597.452632 392.256 
L 1638.568421 392.256 
L 1656.189474 392.256 
L 1656.189474 325.728 
L 1726.673684 325.728 
L 1726.673684 259.2 
L 1732.547368 259.2 
L 1744.294737 259.2 
L 1803.031579 259.2 
L 1814.778947 259.2 
L 1944 259.2 
" clip-path="url(#p2d2ead9e03)" style="fill: none; stroke: #1f78b4; stroke-width: 4; stroke-linecap: round"/>
   </g>
   <g id="line2d_15">
    <path d="M 270 1922.4 
L 286.909091 1922.4 
L 286.909091 1771.2 
L 303.818182 1771.2 
L 303.818182 1620 
L 320.727273 1620 
L 320.727273 1317.6 
L 439.090909 1317.6 
L 439.090909 1166.4 
L 574.363636 1166.4 
L 574.363636 1015.2 
L 895.636364 1015.2 
L 895.636364 864 
L 929.454545 864 
L 929.454545 712.8 
L 963.272727 712.8 
L 963.272727 561.6 
L 1183.090909 561.6 
L 1183.090909 410.4 
L 1470.545455 410.4 
L 1470.545455 259.2 
L 1910.181818 259.2 
L 1944 259.2 
" clip-path="url(#p2d2ead9e03)" style="fill: none; stroke: #b2df8a; stroke-width: 4; stroke-linecap: round"/>
   </g>
   <g id="line2d_16">
    <path d="M 270 1922.4 
L 277.278261 1922.4 
L 277.278261 1866.96 
L 291.834783 1866.96 
L 291.834783 1645.2 
L 350.06087 1645.2 
L 350.06087 1478.88 
L 401.008696 1478.88 
L 401.008696 1423.44 
L 437.4 1423.44 
L 437.4 1312.56 
L 488.347826 1312.56 
L 488.347826 1257.12 
L 517.46087 1257.12 
L 517.46087 1201.68 
L 568.408696 1201.68 
L 568.408696 1146.24 
L 582.965217 1146.24 
L 582.965217 1090.8 
L 604.8 1090.8 
L 604.8 1035.36 
L 619.356522 1035.36 
L 619.356522 979.92 
L 699.417391 979.92 
L 699.417391 924.48 
L 721.252174 924.48 
L 735.808696 924.48 
L 743.086957 924.48 
L 757.643478 924.48 
L 794.034783 924.48 
L 794.034783 758.16 
L 801.313043 758.16 
L 801.313043 647.28 
L 837.704348 647.28 
L 852.26087 647.28 
L 874.095652 647.28 
L 874.095652 591.84 
L 990.547826 591.84 
L 1005.104348 591.84 
L 1085.165217 591.84 
L 1085.165217 536.4 
L 1121.556522 536.4 
L 1121.556522 480.96 
L 1288.956522 480.96 
L 1288.956522 425.52 
L 1296.234783 425.52 
L 1296.234783 370.08 
L 1485.469565 370.08 
L 1500.026087 370.08 
L 1550.973913 370.08 
L 1550.973913 314.64 
L 1776.6 314.64 
L 1791.156522 314.64 
L 1798.434783 314.64 
L 1812.991304 314.64 
L 1834.826087 314.64 
L 1849.382609 314.64 
L 1893.052174 314.64 
L 1893.052174 259.2 
L 1914.886957 259.2 
L 1936.721739 259.2 
L 1944 259.2 
" clip-path="url(#p2d2ead9e03)" style="fill: none; stroke: #33a02c; stroke-width: 4; stroke-linecap: round"/>
   </g>
   <g id="line2d_17">
    <path d="M 270 1922.4 
L 277.184549 1922.4 
L 277.184549 1860.8 
L 298.738197 1860.8 
L 298.738197 1737.6 
L 305.922747 1737.6 
L 305.922747 1676 
L 341.845494 1676 
L 341.845494 1614.4 
L 377.76824 1614.4 
L 377.76824 1552.8 
L 384.95279 1552.8 
L 384.95279 1491.2 
L 392.137339 1491.2 
L 392.137339 1429.6 
L 463.982833 1429.6 
L 463.982833 1368 
L 478.351931 1368 
L 478.351931 1306.4 
L 514.274678 1306.4 
L 514.274678 1244.8 
L 543.012876 1244.8 
L 543.012876 1183.2 
L 593.304721 1183.2 
L 593.304721 1121.6 
L 622.042918 1121.6 
L 622.042918 1060 
L 636.412017 1060 
L 636.412017 998.4 
L 708.257511 998.4 
L 708.257511 936.8 
L 736.995708 936.8 
L 765.733906 936.8 
L 808.841202 936.8 
L 808.841202 813.6 
L 816.025751 813.6 
L 816.025751 752 
L 830.39485 752 
L 830.39485 690.4 
L 851.948498 690.4 
L 866.317597 690.4 
L 959.716738 690.4 
L 959.716738 628.8 
L 1024.377682 628.8 
L 1038.746781 628.8 
L 1067.484979 628.8 
L 1067.484979 567.2 
L 1117.776824 567.2 
L 1117.776824 505.6 
L 1189.622318 505.6 
L 1203.991416 505.6 
L 1333.313305 505.6 
L 1347.682403 505.6 
L 1362.051502 505.6 
L 1362.051502 444 
L 1369.236052 444 
L 1369.236052 382.4 
L 1505.742489 382.4 
L 1520.111588 382.4 
L 1591.957082 382.4 
L 1591.957082 320.8 
L 1735.648069 320.8 
L 1750.017167 320.8 
L 1793.124464 320.8 
L 1814.678112 320.8 
L 1829.04721 320.8 
L 1843.416309 320.8 
L 1872.154506 320.8 
L 1886.523605 320.8 
L 1915.261803 320.8 
L 1915.261803 259.2 
L 1929.630901 259.2 
L 1944 259.2 
" clip-path="url(#p2d2ead9e03)" style="fill: none; stroke: #fb9a99; stroke-width: 4; stroke-linecap: round"/>
   </g>
   <g id="line2d_18">
    <path d="M 270 1922.4 
L 278.71875 1922.4 
L 278.71875 1830 
L 296.15625 1830 
L 296.15625 1737.6 
L 313.59375 1737.6 
L 313.59375 1645.2 
L 374.625 1645.2 
L 374.625 1552.8 
L 400.78125 1552.8 
L 400.78125 1368 
L 470.53125 1368 
L 470.53125 1275.6 
L 487.96875 1275.6 
L 487.96875 1183.2 
L 531.5625 1183.2 
L 531.5625 1090.8 
L 566.4375 1090.8 
L 566.4375 998.4 
L 627.46875 998.4 
L 627.46875 906 
L 819.28125 906 
L 854.15625 906 
L 906.46875 906 
L 906.46875 813.6 
L 915.1875 813.6 
L 915.1875 721.2 
L 923.90625 721.2 
L 923.90625 536.4 
L 967.5 536.4 
L 984.9375 536.4 
L 1011.09375 536.4 
L 1011.09375 444 
L 1141.875 444 
L 1168.03125 444 
L 1246.5 444 
L 1272.65625 444 
L 1473.1875 444 
L 1473.1875 351.6 
L 1752.1875 351.6 
L 1752.1875 259.2 
L 1944 259.2 
" clip-path="url(#p2d2ead9e03)" style="fill: none; stroke: #e31a1c; stroke-width: 4; stroke-linecap: round"/>
   </g>
   <g id="line2d_19">
    <path d="M 270 1922.4 
L 281.310811 1922.4 
L 281.310811 1783.8 
L 337.864865 1783.8 
L 337.864865 1645.2 
L 383.108108 1645.2 
L 383.108108 1506.6 
L 428.351351 1506.6 
L 428.351351 1368 
L 462.283784 1368 
L 462.283784 1229.4 
L 620.635135 1229.4 
L 620.635135 1090.8 
L 824.22973 1090.8 
L 824.22973 952.2 
L 1095.689189 952.2 
L 1140.932432 952.2 
L 1197.486486 952.2 
L 1197.486486 536.4 
L 1220.108108 536.4 
L 1220.108108 397.8 
L 1276.662162 397.8 
L 1299.283784 397.8 
L 1333.216216 397.8 
L 1333.216216 259.2 
L 1514.189189 259.2 
L 1548.121622 259.2 
L 1796.959459 259.2 
L 1830.891892 259.2 
L 1944 259.2 
" clip-path="url(#p2d2ead9e03)" style="fill: none; stroke: #fdbf6f; stroke-width: 4; stroke-linecap: round"/>
   </g>
   <g id="line2d_20">
    <path d="M 270 1922.4 
L 276.975 1922.4 
L 276.975 1839.24 
L 297.9 1839.24 
L 297.9 1672.92 
L 346.725 1672.92 
L 346.725 1589.76 
L 381.6 1589.76 
L 381.6 1506.6 
L 409.5 1506.6 
L 409.5 1423.44 
L 458.325 1423.44 
L 458.325 1340.28 
L 472.275 1340.28 
L 472.275 1257.12 
L 507.15 1257.12 
L 507.15 1173.96 
L 535.05 1173.96 
L 535.05 1090.8 
L 555.975 1090.8 
L 555.975 1007.64 
L 590.85 1007.64 
L 590.85 924.48 
L 611.775 924.48 
L 611.775 841.32 
L 751.275 841.32 
L 779.175 841.32 
L 821.025 841.32 
L 821.025 758.16 
L 834.975 758.16 
L 834.975 675 
L 841.95 675 
L 841.95 508.68 
L 876.825 508.68 
L 890.775 508.68 
L 974.475 508.68 
L 974.475 425.52 
L 1037.25 425.52 
L 1051.2 425.52 
L 1204.65 425.52 
L 1225.575 425.52 
L 1344.15 425.52 
L 1358.1 425.52 
L 1365.075 425.52 
L 1365.075 259.2 
L 1755.675 259.2 
L 1769.625 259.2 
L 1790.55 259.2 
L 1811.475 259.2 
L 1825.425 259.2 
L 1853.325 259.2 
L 1867.275 259.2 
L 1916.1 259.2 
L 1937.025 259.2 
L 1944 259.2 
" clip-path="url(#p2d2ead9e03)" style="fill: none; stroke: #ff7f00; stroke-width: 4; stroke-linecap: round"/>
   </g>
   <g id="line2d_21">
    <path d="M 270 1922.4 
L 279.197802 1922.4 
L 279.197802 1863 
L 297.593407 1863 
L 297.593407 1684.8 
L 334.384615 1684.8 
L 334.384615 1625.4 
L 343.582418 1625.4 
L 343.582418 1566 
L 352.78022 1566 
L 352.78022 1506.6 
L 380.373626 1506.6 
L 380.373626 1387.8 
L 407.967033 1387.8 
L 407.967033 1328.4 
L 435.56044 1328.4 
L 435.56044 1269 
L 490.747253 1269 
L 490.747253 1209.6 
L 499.945055 1209.6 
L 499.945055 1150.2 
L 564.32967 1150.2 
L 564.32967 1090.8 
L 591.923077 1090.8 
L 591.923077 1031.4 
L 665.505495 1031.4 
L 665.505495 972 
L 702.296703 972 
L 702.296703 853.2 
L 739.087912 853.2 
L 739.087912 793.8 
L 849.461538 793.8 
L 849.461538 734.4 
L 877.054945 734.4 
L 913.846154 734.4 
L 950.637363 734.4 
L 950.637363 615.6 
L 959.835165 615.6 
L 959.835165 556.2 
L 969.032967 556.2 
L 969.032967 437.4 
L 1116.197802 437.4 
L 1116.197802 378 
L 1180.582418 378 
L 1208.175824 378 
L 1235.769231 378 
L 1263.362637 378 
L 1355.340659 378 
L 1355.340659 318.6 
L 1401.32967 318.6 
L 1419.725275 318.6 
L 1447.318681 318.6 
L 1465.714286 318.6 
L 1594.483516 318.6 
L 1612.879121 318.6 
L 1815.230769 318.6 
L 1815.230769 259.2 
L 1944 259.2 
" clip-path="url(#p2d2ead9e03)" style="fill: none; stroke: #cab2d6; stroke-width: 4; stroke-linecap: round"/>
   </g>
   <g id="line2d_22">
    <path d="M 270 1922.4 
L 278.764398 1922.4 
L 278.764398 1834.863158 
L 305.057592 1834.863158 
L 305.057592 1659.789474 
L 357.643979 1659.789474 
L 357.643979 1572.252632 
L 401.465969 1572.252632 
L 401.465969 1309.642105 
L 445.287958 1309.642105 
L 445.287958 1222.105263 
L 524.167539 1222.105263 
L 524.167539 1134.568421 
L 559.225131 1134.568421 
L 559.225131 1047.031579 
L 594.282723 1047.031579 
L 594.282723 959.494737 
L 646.86911 959.494737 
L 646.86911 871.957895 
L 690.691099 871.957895 
L 690.691099 784.421053 
L 883.507853 784.421053 
L 901.036649 784.421053 
L 962.387435 784.421053 
L 962.387435 609.347368 
L 971.151832 609.347368 
L 971.151832 434.273684 
L 988.680628 434.273684 
L 1006.209424 434.273684 
L 1032.502618 434.273684 
L 1032.502618 346.736842 
L 1163.968586 346.736842 
L 1190.26178 346.736842 
L 1374.314136 346.736842 
L 1391.842932 346.736842 
L 1558.366492 346.736842 
L 1575.895288 346.736842 
L 1768.712042 346.736842 
L 1768.712042 259.2 
L 1803.769634 259.2 
L 1821.298429 259.2 
L 1944 259.2 
" clip-path="url(#p2d2ead9e03)" style="fill: none; stroke: #6a3d9a; stroke-width: 4; stroke-linecap: round"/>
   </g>
   <g id="line2d_23">
    <path d="M 270 1922.4 
L 277.153846 1922.4 
L 277.153846 1858.430769 
L 291.461538 1858.430769 
L 291.461538 1666.523077 
L 327.230769 1666.523077 
L 327.230769 1538.584615 
L 363 1538.584615 
L 363 1410.646154 
L 377.307692 1410.646154 
L 377.307692 1346.676923 
L 384.461538 1346.676923 
L 384.461538 1282.707692 
L 463.153846 1282.707692 
L 463.153846 1218.738462 
L 470.307692 1218.738462 
L 470.307692 1154.769231 
L 484.615385 1154.769231 
L 484.615385 1090.8 
L 513.230769 1090.8 
L 513.230769 1026.830769 
L 534.692308 1026.830769 
L 534.692308 962.861538 
L 584.769231 962.861538 
L 584.769231 898.892308 
L 713.538462 898.892308 
L 742.153846 898.892308 
L 777.923077 898.892308 
L 777.923077 770.953846 
L 785.076923 770.953846 
L 785.076923 706.984615 
L 792.230769 706.984615 
L 792.230769 579.046154 
L 906.692308 579.046154 
L 906.692308 515.076923 
L 942.461538 515.076923 
L 963.923077 515.076923 
L 1121.307692 515.076923 
L 1135.615385 515.076923 
L 1157.076923 515.076923 
L 1171.384615 515.076923 
L 1257.230769 515.076923 
L 1257.230769 451.107692 
L 1300.153846 451.107692 
L 1300.153846 387.138462 
L 1479 387.138462 
L 1479 323.169231 
L 1650.692308 323.169231 
L 1672.153846 323.169231 
L 1707.923077 323.169231 
L 1722.230769 323.169231 
L 1786.615385 323.169231 
L 1808.076923 323.169231 
L 1858.153846 323.169231 
L 1879.615385 323.169231 
L 1944 323.169231 
L 1944 259.2 
" clip-path="url(#p2d2ead9e03)" style="fill: none; stroke: #ffff99; stroke-width: 4; stroke-linecap: round"/>
   </g>
   <g id="line2d_24">
    <path d="M 270 1922.4 
L 287.621053 1922.4 
L 287.621053 1811.52 
L 322.863158 1811.52 
L 322.863158 1478.88 
L 428.589474 1478.88 
L 428.589474 1368 
L 463.831579 1368 
L 463.831579 1257.12 
L 569.557895 1257.12 
L 569.557895 1146.24 
L 604.8 1146.24 
L 604.8 924.48 
L 869.115789 924.48 
L 869.115789 813.6 
L 1027.705263 813.6 
L 1027.705263 702.72 
L 1045.326316 702.72 
L 1045.326316 591.84 
L 1080.568421 591.84 
L 1080.568421 480.96 
L 1362.505263 480.96 
L 1362.505263 259.2 
L 1944 259.2 
" clip-path="url(#p2d2ead9e03)" style="fill: none; stroke: #b15928; stroke-width: 4; stroke-linecap: round"/>
   </g>
   <g id="line2d_25">
    <path d="M 270 1922.4 
L 1944 259.2 
" clip-path="url(#p2d2ead9e03)" style="fill: none; stroke-dasharray: 22.2,9.6; stroke-dashoffset: 0; stroke: #808080; stroke-width: 6"/>
   </g>
   <g id="patch_3">
    <path d="M 270 1922.4 
L 270 259.2 
" style="fill: none; stroke: #ffffff; stroke-width: 1.25; stroke-linejoin: miter; stroke-linecap: square"/>
   </g>
   <g id="patch_4">
    <path d="M 1944 1922.4 
L 1944 259.2 
" style="fill: none; stroke: #ffffff; stroke-width: 1.25; stroke-linejoin: miter; stroke-linecap: square"/>
   </g>
   <g id="patch_5">
    <path d="M 270 1922.4 
L 1944 1922.4 
" style="fill: none; stroke: #ffffff; stroke-width: 1.25; stroke-linejoin: miter; stroke-linecap: square"/>
   </g>
   <g id="patch_6">
    <path d="M 270 259.2 
L 1944 259.2 
" style="fill: none; stroke: #ffffff; stroke-width: 1.25; stroke-linejoin: miter; stroke-linecap: square"/>
   </g>
   <g id="legend_1">
    <g id="patch_7">
     <path d="M 275.6 225.936 
L 1938.4 225.936 
Q 1944 225.936 1944 220.336 
L 1944 63.802875 
Q 1944 58.202875 1938.4 58.202875 
L 275.6 58.202875 
Q 270 58.202875 270 63.802875 
L 270 220.336 
Q 270 225.936 275.6 225.936 
z
" style="fill: #eaeaf2; opacity: 0.8; stroke: #cccccc; stroke-linejoin: miter"/>
    </g>
    <g id="line2d_26">
     <path d="M 281.2 79.727875 
L 309.2 79.727875 
L 337.2 79.727875 
" style="fill: none; stroke: #a6cee3; stroke-width: 4; stroke-linecap: round"/>
    </g>
    <g id="text_15">
     <!-- cicer arietinum, auc=0.77 -->
     <g style="fill: #262626" transform="translate(359.6 89.527875) scale(0.28 -0.28)">
      <defs>
       <path id="ArialMT-63" d="M 2588 1216 
L 3141 1144 
Q 3050 572 2676 248 
Q 2303 -75 1759 -75 
Q 1078 -75 664 370 
Q 250 816 250 1647 
Q 250 2184 428 2587 
Q 606 2991 970 3192 
Q 1334 3394 1763 3394 
Q 2303 3394 2647 3120 
Q 2991 2847 3088 2344 
L 2541 2259 
Q 2463 2594 2264 2762 
Q 2066 2931 1784 2931 
Q 1359 2931 1093 2626 
Q 828 2322 828 1663 
Q 828 994 1084 691 
Q 1341 388 1753 388 
Q 2084 388 2306 591 
Q 2528 794 2588 1216 
z
" transform="scale(0.015625)"/>
       <path id="ArialMT-6e" d="M 422 0 
L 422 3319 
L 928 3319 
L 928 2847 
Q 1294 3394 1984 3394 
Q 2284 3394 2536 3286 
Q 2788 3178 2913 3003 
Q 3038 2828 3088 2588 
Q 3119 2431 3119 2041 
L 3119 0 
L 2556 0 
L 2556 2019 
Q 2556 2363 2490 2533 
Q 2425 2703 2258 2804 
Q 2091 2906 1866 2906 
Q 1506 2906 1245 2678 
Q 984 2450 984 1813 
L 984 0 
L 422 0 
z
" transform="scale(0.015625)"/>
       <path id="ArialMT-6d" d="M 422 0 
L 422 3319 
L 925 3319 
L 925 2853 
Q 1081 3097 1340 3245 
Q 1600 3394 1931 3394 
Q 2300 3394 2536 3241 
Q 2772 3088 2869 2813 
Q 3263 3394 3894 3394 
Q 4388 3394 4653 3120 
Q 4919 2847 4919 2278 
L 4919 0 
L 4359 0 
L 4359 2091 
Q 4359 2428 4304 2576 
Q 4250 2725 4106 2815 
Q 3963 2906 3769 2906 
Q 3419 2906 3187 2673 
Q 2956 2441 2956 1928 
L 2956 0 
L 2394 0 
L 2394 2156 
Q 2394 2531 2256 2718 
Q 2119 2906 1806 2906 
Q 1569 2906 1367 2781 
Q 1166 2656 1075 2415 
Q 984 2175 984 1722 
L 984 0 
L 422 0 
z
" transform="scale(0.015625)"/>
       <path id="ArialMT-2c" d="M 569 0 
L 569 641 
L 1209 641 
L 1209 0 
Q 1209 -353 1084 -570 
Q 959 -788 688 -906 
L 531 -666 
Q 709 -588 793 -436 
Q 878 -284 888 0 
L 569 0 
z
" transform="scale(0.015625)"/>
       <path id="ArialMT-3d" d="M 3381 2694 
L 356 2694 
L 356 3219 
L 3381 3219 
L 3381 2694 
z
M 3381 1303 
L 356 1303 
L 356 1828 
L 3381 1828 
L 3381 1303 
z
" transform="scale(0.015625)"/>
       <path id="ArialMT-37" d="M 303 3981 
L 303 4522 
L 3269 4522 
L 3269 4084 
Q 2831 3619 2401 2847 
Q 1972 2075 1738 1259 
Q 1569 684 1522 0 
L 944 0 
Q 953 541 1156 1306 
Q 1359 2072 1739 2783 
Q 2119 3494 2547 3981 
L 303 3981 
z
" transform="scale(0.015625)"/>
      </defs>
      <use xlink:href="#ArialMT-63"/>
      <use xlink:href="#ArialMT-69" x="50"/>
      <use xlink:href="#ArialMT-63" x="72.216797"/>
      <use xlink:href="#ArialMT-65" x="122.216797"/>
      <use xlink:href="#ArialMT-72" x="177.832031"/>
      <use xlink:href="#ArialMT-20" x="211.132812"/>
      <use xlink:href="#ArialMT-61" x="238.916016"/>
      <use xlink:href="#ArialMT-72" x="294.53125"/>
      <use xlink:href="#ArialMT-69" x="327.832031"/>
      <use xlink:href="#ArialMT-65" x="350.048828"/>
      <use xlink:href="#ArialMT-74" x="405.664062"/>
      <use xlink:href="#ArialMT-69" x="433.447266"/>
      <use xlink:href="#ArialMT-6e" x="455.664062"/>
      <use xlink:href="#ArialMT-75" x="511.279297"/>
      <use xlink:href="#ArialMT-6d" x="566.894531"/>
      <use xlink:href="#ArialMT-2c" x="650.195312"/>
      <use xlink:href="#ArialMT-20" x="677.978516"/>
      <use xlink:href="#ArialMT-61" x="705.761719"/>
      <use xlink:href="#ArialMT-75" x="761.376953"/>
      <use xlink:href="#ArialMT-63" x="816.992188"/>
      <use xlink:href="#ArialMT-3d" x="866.992188"/>
      <use xlink:href="#ArialMT-30" x="925.390625"/>
      <use xlink:href="#ArialMT-2e" x="981.005859"/>
      <use xlink:href="#ArialMT-37" x="1008.789062"/>
      <use xlink:href="#ArialMT-37" x="1064.404297"/>
     </g>
    </g>
    <g id="line2d_27">
     <path d="M 281.2 119.33475 
L 309.2 119.33475 
L 337.2 119.33475 
" style="fill: none; stroke: #1f78b4; stroke-width: 4; stroke-linecap: round"/>
    </g>
    <g id="text_16">
     <!-- daucus carota, auc=0.76 -->
     <g style="fill: #262626" transform="translate(359.6 129.13475) scale(0.28 -0.28)">
      <defs>
       <path id="ArialMT-64" d="M 2575 0 
L 2575 419 
Q 2259 -75 1647 -75 
Q 1250 -75 917 144 
Q 584 363 401 755 
Q 219 1147 219 1656 
Q 219 2153 384 2558 
Q 550 2963 881 3178 
Q 1213 3394 1622 3394 
Q 1922 3394 2156 3267 
Q 2391 3141 2538 2938 
L 2538 4581 
L 3097 4581 
L 3097 0 
L 2575 0 
z
M 797 1656 
Q 797 1019 1065 703 
Q 1334 388 1700 388 
Q 2069 388 2326 689 
Q 2584 991 2584 1609 
Q 2584 2291 2321 2609 
Q 2059 2928 1675 2928 
Q 1300 2928 1048 2622 
Q 797 2316 797 1656 
z
" transform="scale(0.015625)"/>
      </defs>
      <use xlink:href="#ArialMT-64"/>
      <use xlink:href="#ArialMT-61" x="55.615234"/>
      <use xlink:href="#ArialMT-75" x="111.230469"/>
      <use xlink:href="#ArialMT-63" x="166.845703"/>
      <use xlink:href="#ArialMT-75" x="216.845703"/>
      <use xlink:href="#ArialMT-73" x="272.460938"/>
      <use xlink:href="#ArialMT-20" x="322.460938"/>
      <use xlink:href="#ArialMT-63" x="350.244141"/>
      <use xlink:href="#ArialMT-61" x="400.244141"/>
      <use xlink:href="#ArialMT-72" x="455.859375"/>
      <use xlink:href="#ArialMT-6f" x="489.160156"/>
      <use xlink:href="#ArialMT-74" x="544.775391"/>
      <use xlink:href="#ArialMT-61" x="572.558594"/>
      <use xlink:href="#ArialMT-2c" x="628.173828"/>
      <use xlink:href="#ArialMT-20" x="655.957031"/>
      <use xlink:href="#ArialMT-61" x="683.740234"/>
      <use xlink:href="#ArialMT-75" x="739.355469"/>
      <use xlink:href="#ArialMT-63" x="794.970703"/>
      <use xlink:href="#ArialMT-3d" x="844.970703"/>
      <use xlink:href="#ArialMT-30" x="903.369141"/>
      <use xlink:href="#ArialMT-2e" x="958.984375"/>
      <use xlink:href="#ArialMT-37" x="986.767578"/>
      <use xlink:href="#ArialMT-36" x="1042.382812"/>
     </g>
    </g>
    <g id="line2d_28">
     <path d="M 281.2 159.02475 
L 309.2 159.02475 
L 337.2 159.02475 
" style="fill: none; stroke: #b2df8a; stroke-width: 4; stroke-linecap: round"/>
    </g>
    <g id="text_17">
     <!-- glycine max, auc=0.74 -->
     <g style="fill: #262626" transform="translate(359.6 168.82475) scale(0.28 -0.28)">
      <defs>
       <path id="ArialMT-67" d="M 319 -275 
L 866 -356 
Q 900 -609 1056 -725 
Q 1266 -881 1628 -881 
Q 2019 -881 2231 -725 
Q 2444 -569 2519 -288 
Q 2563 -116 2559 434 
Q 2191 0 1641 0 
Q 956 0 581 494 
Q 206 988 206 1678 
Q 206 2153 378 2554 
Q 550 2956 876 3175 
Q 1203 3394 1644 3394 
Q 2231 3394 2613 2919 
L 2613 3319 
L 3131 3319 
L 3131 450 
Q 3131 -325 2973 -648 
Q 2816 -972 2473 -1159 
Q 2131 -1347 1631 -1347 
Q 1038 -1347 672 -1080 
Q 306 -813 319 -275 
z
M 784 1719 
Q 784 1066 1043 766 
Q 1303 466 1694 466 
Q 2081 466 2343 764 
Q 2606 1063 2606 1700 
Q 2606 2309 2336 2618 
Q 2066 2928 1684 2928 
Q 1309 2928 1046 2623 
Q 784 2319 784 1719 
z
" transform="scale(0.015625)"/>
       <path id="ArialMT-79" d="M 397 -1278 
L 334 -750 
Q 519 -800 656 -800 
Q 844 -800 956 -737 
Q 1069 -675 1141 -563 
Q 1194 -478 1313 -144 
Q 1328 -97 1363 -6 
L 103 3319 
L 709 3319 
L 1400 1397 
Q 1534 1031 1641 628 
Q 1738 1016 1872 1384 
L 2581 3319 
L 3144 3319 
L 1881 -56 
Q 1678 -603 1566 -809 
Q 1416 -1088 1222 -1217 
Q 1028 -1347 759 -1347 
Q 597 -1347 397 -1278 
z
" transform="scale(0.015625)"/>
       <path id="ArialMT-78" d="M 47 0 
L 1259 1725 
L 138 3319 
L 841 3319 
L 1350 2541 
Q 1494 2319 1581 2169 
Q 1719 2375 1834 2534 
L 2394 3319 
L 3066 3319 
L 1919 1756 
L 3153 0 
L 2463 0 
L 1781 1031 
L 1600 1309 
L 728 0 
L 47 0 
z
" transform="scale(0.015625)"/>
      </defs>
      <use xlink:href="#ArialMT-67"/>
      <use xlink:href="#ArialMT-6c" x="55.615234"/>
      <use xlink:href="#ArialMT-79" x="77.832031"/>
      <use xlink:href="#ArialMT-63" x="127.832031"/>
      <use xlink:href="#ArialMT-69" x="177.832031"/>
      <use xlink:href="#ArialMT-6e" x="200.048828"/>
      <use xlink:href="#ArialMT-65" x="255.664062"/>
      <use xlink:href="#ArialMT-20" x="311.279297"/>
      <use xlink:href="#ArialMT-6d" x="339.0625"/>
      <use xlink:href="#ArialMT-61" x="422.363281"/>
      <use xlink:href="#ArialMT-78" x="477.978516"/>
      <use xlink:href="#ArialMT-2c" x="527.978516"/>
      <use xlink:href="#ArialMT-20" x="555.761719"/>
      <use xlink:href="#ArialMT-61" x="583.544922"/>
      <use xlink:href="#ArialMT-75" x="639.160156"/>
      <use xlink:href="#ArialMT-63" x="694.775391"/>
      <use xlink:href="#ArialMT-3d" x="744.775391"/>
      <use xlink:href="#ArialMT-30" x="803.173828"/>
      <use xlink:href="#ArialMT-2e" x="858.789062"/>
      <use xlink:href="#ArialMT-37" x="886.572266"/>
      <use xlink:href="#ArialMT-34" x="942.1875"/>
     </g>
    </g>
    <g id="line2d_29">
     <path d="M 281.2 198.95975 
L 309.2 198.95975 
L 337.2 198.95975 
" style="fill: none; stroke: #33a02c; stroke-width: 4; stroke-linecap: round"/>
    </g>
    <g id="text_18">
     <!-- lactuca sativa, auc=0.74 -->
     <g style="fill: #262626" transform="translate(359.6 208.75975) scale(0.28 -0.28)">
      <use xlink:href="#ArialMT-6c"/>
      <use xlink:href="#ArialMT-61" x="22.216797"/>
      <use xlink:href="#ArialMT-63" x="77.832031"/>
      <use xlink:href="#ArialMT-74" x="127.832031"/>
      <use xlink:href="#ArialMT-75" x="155.615234"/>
      <use xlink:href="#ArialMT-63" x="211.230469"/>
      <use xlink:href="#ArialMT-61" x="261.230469"/>
      <use xlink:href="#ArialMT-20" x="316.845703"/>
      <use xlink:href="#ArialMT-73" x="344.628906"/>
      <use xlink:href="#ArialMT-61" x="394.628906"/>
      <use xlink:href="#ArialMT-74" x="450.244141"/>
      <use xlink:href="#ArialMT-69" x="478.027344"/>
      <use xlink:href="#ArialMT-76" x="500.244141"/>
      <use xlink:href="#ArialMT-61" x="550.244141"/>
      <use xlink:href="#ArialMT-2c" x="605.859375"/>
      <use xlink:href="#ArialMT-20" x="633.642578"/>
      <use xlink:href="#ArialMT-61" x="661.425781"/>
      <use xlink:href="#ArialMT-75" x="717.041016"/>
      <use xlink:href="#ArialMT-63" x="772.65625"/>
      <use xlink:href="#ArialMT-3d" x="822.65625"/>
      <use xlink:href="#ArialMT-30" x="881.054688"/>
      <use xlink:href="#ArialMT-2e" x="936.669922"/>
      <use xlink:href="#ArialMT-37" x="964.453125"/>
      <use xlink:href="#ArialMT-34" x="1020.068359"/>
     </g>
    </g>
    <g id="line2d_30">
     <path d="M 777.144687 79.727875 
L 805.144687 79.727875 
L 833.144687 79.727875 
" style="fill: none; stroke: #fb9a99; stroke-width: 4; stroke-linecap: round"/>
    </g>
    <g id="text_19">
     <!-- malus domestica, auc=0.72 -->
     <g style="fill: #262626" transform="translate(855.544687 89.527875) scale(0.28 -0.28)">
      <use xlink:href="#ArialMT-6d"/>
      <use xlink:href="#ArialMT-61" x="83.300781"/>
      <use xlink:href="#ArialMT-6c" x="138.916016"/>
      <use xlink:href="#ArialMT-75" x="161.132812"/>
      <use xlink:href="#ArialMT-73" x="216.748047"/>
      <use xlink:href="#ArialMT-20" x="266.748047"/>
      <use xlink:href="#ArialMT-64" x="294.53125"/>
      <use xlink:href="#ArialMT-6f" x="350.146484"/>
      <use xlink:href="#ArialMT-6d" x="405.761719"/>
      <use xlink:href="#ArialMT-65" x="489.0625"/>
      <use xlink:href="#ArialMT-73" x="544.677734"/>
      <use xlink:href="#ArialMT-74" x="594.677734"/>
      <use xlink:href="#ArialMT-69" x="622.460938"/>
      <use xlink:href="#ArialMT-63" x="644.677734"/>
      <use xlink:href="#ArialMT-61" x="694.677734"/>
      <use xlink:href="#ArialMT-2c" x="750.292969"/>
      <use xlink:href="#ArialMT-20" x="778.076172"/>
      <use xlink:href="#ArialMT-61" x="805.859375"/>
      <use xlink:href="#ArialMT-75" x="861.474609"/>
      <use xlink:href="#ArialMT-63" x="917.089844"/>
      <use xlink:href="#ArialMT-3d" x="967.089844"/>
      <use xlink:href="#ArialMT-30" x="1025.488281"/>
      <use xlink:href="#ArialMT-2e" x="1081.103516"/>
      <use xlink:href="#ArialMT-37" x="1108.886719"/>
      <use xlink:href="#ArialMT-32" x="1164.501953"/>
     </g>
    </g>
    <g id="line2d_31">
     <path d="M 777.144687 119.33475 
L 805.144687 119.33475 
L 833.144687 119.33475 
" style="fill: none; stroke: #e31a1c; stroke-width: 4; stroke-linecap: round"/>
    </g>
    <g id="text_20">
     <!-- musa acuminata, auc=0.74 -->
     <g style="fill: #262626" transform="translate(855.544687 129.13475) scale(0.28 -0.28)">
      <use xlink:href="#ArialMT-6d"/>
      <use xlink:href="#ArialMT-75" x="83.300781"/>
      <use xlink:href="#ArialMT-73" x="138.916016"/>
      <use xlink:href="#ArialMT-61" x="188.916016"/>
      <use xlink:href="#ArialMT-20" x="244.53125"/>
      <use xlink:href="#ArialMT-61" x="272.314453"/>
      <use xlink:href="#ArialMT-63" x="327.929688"/>
      <use xlink:href="#ArialMT-75" x="377.929688"/>
      <use xlink:href="#ArialMT-6d" x="433.544922"/>
      <use xlink:href="#ArialMT-69" x="516.845703"/>
      <use xlink:href="#ArialMT-6e" x="539.0625"/>
      <use xlink:href="#ArialMT-61" x="594.677734"/>
      <use xlink:href="#ArialMT-74" x="650.292969"/>
      <use xlink:href="#ArialMT-61" x="678.076172"/>
      <use xlink:href="#ArialMT-2c" x="733.691406"/>
      <use xlink:href="#ArialMT-20" x="761.474609"/>
      <use xlink:href="#ArialMT-61" x="789.257812"/>
      <use xlink:href="#ArialMT-75" x="844.873047"/>
      <use xlink:href="#ArialMT-63" x="900.488281"/>
      <use xlink:href="#ArialMT-3d" x="950.488281"/>
      <use xlink:href="#ArialMT-30" x="1008.886719"/>
      <use xlink:href="#ArialMT-2e" x="1064.501953"/>
      <use xlink:href="#ArialMT-37" x="1092.285156"/>
      <use xlink:href="#ArialMT-34" x="1147.900391"/>
     </g>
    </g>
    <g id="line2d_32">
     <path d="M 777.144687 159.02475 
L 805.144687 159.02475 
L 833.144687 159.02475 
" style="fill: none; stroke: #fdbf6f; stroke-width: 4; stroke-linecap: round"/>
    </g>
    <g id="text_21">
     <!-- olea europaea var. sylvestris, auc=0.69 -->
     <g style="fill: #262626" transform="translate(855.544687 168.82475) scale(0.28 -0.28)">
      <defs>
       <path id="ArialMT-39" d="M 350 1059 
L 891 1109 
Q 959 728 1153 556 
Q 1347 384 1650 384 
Q 1909 384 2104 503 
Q 2300 622 2425 820 
Q 2550 1019 2634 1356 
Q 2719 1694 2719 2044 
Q 2719 2081 2716 2156 
Q 2547 1888 2255 1720 
Q 1963 1553 1622 1553 
Q 1053 1553 659 1965 
Q 266 2378 266 3053 
Q 266 3750 677 4175 
Q 1088 4600 1706 4600 
Q 2153 4600 2523 4359 
Q 2894 4119 3086 3673 
Q 3278 3228 3278 2384 
Q 3278 1506 3087 986 
Q 2897 466 2520 194 
Q 2144 -78 1638 -78 
Q 1100 -78 759 220 
Q 419 519 350 1059 
z
M 2653 3081 
Q 2653 3566 2395 3850 
Q 2138 4134 1775 4134 
Q 1400 4134 1122 3828 
Q 844 3522 844 3034 
Q 844 2597 1108 2323 
Q 1372 2050 1759 2050 
Q 2150 2050 2401 2323 
Q 2653 2597 2653 3081 
z
" transform="scale(0.015625)"/>
      </defs>
      <use xlink:href="#ArialMT-6f"/>
      <use xlink:href="#ArialMT-6c" x="55.615234"/>
      <use xlink:href="#ArialMT-65" x="77.832031"/>
      <use xlink:href="#ArialMT-61" x="133.447266"/>
      <use xlink:href="#ArialMT-20" x="189.0625"/>
      <use xlink:href="#ArialMT-65" x="216.845703"/>
      <use xlink:href="#ArialMT-75" x="272.460938"/>
      <use xlink:href="#ArialMT-72" x="328.076172"/>
      <use xlink:href="#ArialMT-6f" x="361.376953"/>
      <use xlink:href="#ArialMT-70" x="416.992188"/>
      <use xlink:href="#ArialMT-61" x="472.607422"/>
      <use xlink:href="#ArialMT-65" x="528.222656"/>
      <use xlink:href="#ArialMT-61" x="583.837891"/>
      <use xlink:href="#ArialMT-20" x="639.453125"/>
      <use xlink:href="#ArialMT-76" x="667.236328"/>
      <use xlink:href="#ArialMT-61" x="717.236328"/>
      <use xlink:href="#ArialMT-72" x="772.851562"/>
      <use xlink:href="#ArialMT-2e" x="800.652344"/>
      <use xlink:href="#ArialMT-20" x="828.435547"/>
      <use xlink:href="#ArialMT-73" x="856.21875"/>
      <use xlink:href="#ArialMT-79" x="906.21875"/>
      <use xlink:href="#ArialMT-6c" x="956.21875"/>
      <use xlink:href="#ArialMT-76" x="978.435547"/>
      <use xlink:href="#ArialMT-65" x="1028.435547"/>
      <use xlink:href="#ArialMT-73" x="1084.050781"/>
      <use xlink:href="#ArialMT-74" x="1134.050781"/>
      <use xlink:href="#ArialMT-72" x="1161.833984"/>
      <use xlink:href="#ArialMT-69" x="1195.134766"/>
      <use xlink:href="#ArialMT-73" x="1217.351562"/>
      <use xlink:href="#ArialMT-2c" x="1267.351562"/>
      <use xlink:href="#ArialMT-20" x="1295.134766"/>
      <use xlink:href="#ArialMT-61" x="1322.917969"/>
      <use xlink:href="#ArialMT-75" x="1378.533203"/>
      <use xlink:href="#ArialMT-63" x="1434.148438"/>
      <use xlink:href="#ArialMT-3d" x="1484.148438"/>
      <use xlink:href="#ArialMT-30" x="1542.546875"/>
      <use xlink:href="#ArialMT-2e" x="1598.162109"/>
      <use xlink:href="#ArialMT-36" x="1625.945312"/>
      <use xlink:href="#ArialMT-39" x="1681.560547"/>
     </g>
    </g>
    <g id="line2d_33">
     <path d="M 777.144687 199.042875 
L 805.144687 199.042875 
L 833.144687 199.042875 
" style="fill: none; stroke: #ff7f00; stroke-width: 4; stroke-linecap: round"/>
    </g>
    <g id="text_22">
     <!-- prunus persica, auc=0.78 -->
     <g style="fill: #262626" transform="translate(855.544687 208.842875) scale(0.28 -0.28)">
      <use xlink:href="#ArialMT-70"/>
      <use xlink:href="#ArialMT-72" x="55.615234"/>
      <use xlink:href="#ArialMT-75" x="88.916016"/>
      <use xlink:href="#ArialMT-6e" x="144.53125"/>
      <use xlink:href="#ArialMT-75" x="200.146484"/>
      <use xlink:href="#ArialMT-73" x="255.761719"/>
      <use xlink:href="#ArialMT-20" x="305.761719"/>
      <use xlink:href="#ArialMT-70" x="333.544922"/>
      <use xlink:href="#ArialMT-65" x="389.160156"/>
      <use xlink:href="#ArialMT-72" x="444.775391"/>
      <use xlink:href="#ArialMT-73" x="478.076172"/>
      <use xlink:href="#ArialMT-69" x="528.076172"/>
      <use xlink:href="#ArialMT-63" x="550.292969"/>
      <use xlink:href="#ArialMT-61" x="600.292969"/>
      <use xlink:href="#ArialMT-2c" x="655.908203"/>
      <use xlink:href="#ArialMT-20" x="683.691406"/>
      <use xlink:href="#ArialMT-61" x="711.474609"/>
      <use xlink:href="#ArialMT-75" x="767.089844"/>
      <use xlink:href="#ArialMT-63" x="822.705078"/>
      <use xlink:href="#ArialMT-3d" x="872.705078"/>
      <use xlink:href="#ArialMT-30" x="931.103516"/>
      <use xlink:href="#ArialMT-2e" x="986.71875"/>
      <use xlink:href="#ArialMT-37" x="1014.501953"/>
      <use xlink:href="#ArialMT-38" x="1070.117188"/>
     </g>
    </g>
    <g id="line2d_34">
     <path d="M 1445.88 79.727875 
L 1473.88 79.727875 
L 1501.88 79.727875 
" style="fill: none; stroke: #cab2d6; stroke-width: 4; stroke-linecap: round"/>
    </g>
    <g id="text_23">
     <!-- solanum lycopersicum, auc=0.76 -->
     <g style="fill: #262626" transform="translate(1524.28 89.527875) scale(0.28 -0.28)">
      <use xlink:href="#ArialMT-73"/>
      <use xlink:href="#ArialMT-6f" x="50"/>
      <use xlink:href="#ArialMT-6c" x="105.615234"/>
      <use xlink:href="#ArialMT-61" x="127.832031"/>
      <use xlink:href="#ArialMT-6e" x="183.447266"/>
      <use xlink:href="#ArialMT-75" x="239.0625"/>
      <use xlink:href="#ArialMT-6d" x="294.677734"/>
      <use xlink:href="#ArialMT-20" x="377.978516"/>
      <use xlink:href="#ArialMT-6c" x="405.761719"/>
      <use xlink:href="#ArialMT-79" x="427.978516"/>
      <use xlink:href="#ArialMT-63" x="477.978516"/>
      <use xlink:href="#ArialMT-6f" x="527.978516"/>
      <use xlink:href="#ArialMT-70" x="583.59375"/>
      <use xlink:href="#ArialMT-65" x="639.208984"/>
      <use xlink:href="#ArialMT-72" x="694.824219"/>
      <use xlink:href="#ArialMT-73" x="728.125"/>
      <use xlink:href="#ArialMT-69" x="778.125"/>
      <use xlink:href="#ArialMT-63" x="800.341797"/>
      <use xlink:href="#ArialMT-75" x="850.341797"/>
      <use xlink:href="#ArialMT-6d" x="905.957031"/>
      <use xlink:href="#ArialMT-2c" x="989.257812"/>
      <use xlink:href="#ArialMT-20" x="1017.041016"/>
      <use xlink:href="#ArialMT-61" x="1044.824219"/>
      <use xlink:href="#ArialMT-75" x="1100.439453"/>
      <use xlink:href="#ArialMT-63" x="1156.054688"/>
      <use xlink:href="#ArialMT-3d" x="1206.054688"/>
      <use xlink:href="#ArialMT-30" x="1264.453125"/>
      <use xlink:href="#ArialMT-2e" x="1320.068359"/>
      <use xlink:href="#ArialMT-37" x="1347.851562"/>
      <use xlink:href="#ArialMT-36" x="1403.466797"/>
     </g>
    </g>
    <g id="line2d_35">
     <path d="M 1445.88 119.662875 
L 1473.88 119.662875 
L 1501.88 119.662875 
" style="fill: none; stroke: #6a3d9a; stroke-width: 4; stroke-linecap: round"/>
    </g>
    <g id="text_24">
     <!-- solanum tuberosum, auc=0.77 -->
     <g style="fill: #262626" transform="translate(1524.28 129.462875) scale(0.28 -0.28)">
      <defs>
       <path id="ArialMT-62" d="M 941 0 
L 419 0 
L 419 4581 
L 981 4581 
L 981 2947 
Q 1338 3394 1891 3394 
Q 2197 3394 2470 3270 
Q 2744 3147 2920 2923 
Q 3097 2700 3197 2384 
Q 3297 2069 3297 1709 
Q 3297 856 2875 390 
Q 2453 -75 1863 -75 
Q 1275 -75 941 416 
L 941 0 
z
M 934 1684 
Q 934 1088 1097 822 
Q 1363 388 1816 388 
Q 2184 388 2453 708 
Q 2722 1028 2722 1663 
Q 2722 2313 2464 2622 
Q 2206 2931 1841 2931 
Q 1472 2931 1203 2611 
Q 934 2291 934 1684 
z
" transform="scale(0.015625)"/>
      </defs>
      <use xlink:href="#ArialMT-73"/>
      <use xlink:href="#ArialMT-6f" x="50"/>
      <use xlink:href="#ArialMT-6c" x="105.615234"/>
      <use xlink:href="#ArialMT-61" x="127.832031"/>
      <use xlink:href="#ArialMT-6e" x="183.447266"/>
      <use xlink:href="#ArialMT-75" x="239.0625"/>
      <use xlink:href="#ArialMT-6d" x="294.677734"/>
      <use xlink:href="#ArialMT-20" x="377.978516"/>
      <use xlink:href="#ArialMT-74" x="405.761719"/>
      <use xlink:href="#ArialMT-75" x="433.544922"/>
      <use xlink:href="#ArialMT-62" x="489.160156"/>
      <use xlink:href="#ArialMT-65" x="544.775391"/>
      <use xlink:href="#ArialMT-72" x="600.390625"/>
      <use xlink:href="#ArialMT-6f" x="633.691406"/>
      <use xlink:href="#ArialMT-73" x="689.306641"/>
      <use xlink:href="#ArialMT-75" x="739.306641"/>
      <use xlink:href="#ArialMT-6d" x="794.921875"/>
      <use xlink:href="#ArialMT-2c" x="878.222656"/>
      <use xlink:href="#ArialMT-20" x="906.005859"/>
      <use xlink:href="#ArialMT-61" x="933.789062"/>
      <use xlink:href="#ArialMT-75" x="989.404297"/>
      <use xlink:href="#ArialMT-63" x="1045.019531"/>
      <use xlink:href="#ArialMT-3d" x="1095.019531"/>
      <use xlink:href="#ArialMT-30" x="1153.417969"/>
      <use xlink:href="#ArialMT-2e" x="1209.033203"/>
      <use xlink:href="#ArialMT-37" x="1236.816406"/>
      <use xlink:href="#ArialMT-37" x="1292.431641"/>
     </g>
    </g>
    <g id="line2d_36">
     <path d="M 1445.88 159.352875 
L 1473.88 159.352875 
L 1501.88 159.352875 
" style="fill: none; stroke: #ffff99; stroke-width: 4; stroke-linecap: round"/>
    </g>
    <g id="text_25">
     <!-- spinacia oleracea, auc=0.77 -->
     <g style="fill: #262626" transform="translate(1524.28 169.152875) scale(0.28 -0.28)">
      <use xlink:href="#ArialMT-73"/>
      <use xlink:href="#ArialMT-70" x="50"/>
      <use xlink:href="#ArialMT-69" x="105.615234"/>
      <use xlink:href="#ArialMT-6e" x="127.832031"/>
      <use xlink:href="#ArialMT-61" x="183.447266"/>
      <use xlink:href="#ArialMT-63" x="239.0625"/>
      <use xlink:href="#ArialMT-69" x="289.0625"/>
      <use xlink:href="#ArialMT-61" x="311.279297"/>
      <use xlink:href="#ArialMT-20" x="366.894531"/>
      <use xlink:href="#ArialMT-6f" x="394.677734"/>
      <use xlink:href="#ArialMT-6c" x="450.292969"/>
      <use xlink:href="#ArialMT-65" x="472.509766"/>
      <use xlink:href="#ArialMT-72" x="528.125"/>
      <use xlink:href="#ArialMT-61" x="561.425781"/>
      <use xlink:href="#ArialMT-63" x="617.041016"/>
      <use xlink:href="#ArialMT-65" x="667.041016"/>
      <use xlink:href="#ArialMT-61" x="722.65625"/>
      <use xlink:href="#ArialMT-2c" x="778.271484"/>
      <use xlink:href="#ArialMT-20" x="806.054688"/>
      <use xlink:href="#ArialMT-61" x="833.837891"/>
      <use xlink:href="#ArialMT-75" x="889.453125"/>
      <use xlink:href="#ArialMT-63" x="945.068359"/>
      <use xlink:href="#ArialMT-3d" x="995.068359"/>
      <use xlink:href="#ArialMT-30" x="1053.466797"/>
      <use xlink:href="#ArialMT-2e" x="1109.082031"/>
      <use xlink:href="#ArialMT-37" x="1136.865234"/>
      <use xlink:href="#ArialMT-37" x="1192.480469"/>
     </g>
    </g>
    <g id="line2d_37">
     <path d="M 1445.88 199.042875 
L 1473.88 199.042875 
L 1501.88 199.042875 
" style="fill: none; stroke: #b15928; stroke-width: 4; stroke-linecap: round"/>
    </g>
    <g id="text_26">
     <!-- zea mays, auc=0.74 -->
     <g style="fill: #262626" transform="translate(1524.28 208.842875) scale(0.28 -0.28)">
      <defs>
       <path id="ArialMT-7a" d="M 125 0 
L 125 456 
L 2238 2881 
Q 1878 2863 1603 2863 
L 250 2863 
L 250 3319 
L 2963 3319 
L 2963 2947 
L 1166 841 
L 819 456 
Q 1197 484 1528 484 
L 3063 484 
L 3063 0 
L 125 0 
z
" transform="scale(0.015625)"/>
      </defs>
      <use xlink:href="#ArialMT-7a"/>
      <use xlink:href="#ArialMT-65" x="50"/>
      <use xlink:href="#ArialMT-61" x="105.615234"/>
      <use xlink:href="#ArialMT-20" x="161.230469"/>
      <use xlink:href="#ArialMT-6d" x="189.013672"/>
      <use xlink:href="#ArialMT-61" x="272.314453"/>
      <use xlink:href="#ArialMT-79" x="327.929688"/>
      <use xlink:href="#ArialMT-73" x="377.929688"/>
      <use xlink:href="#ArialMT-2c" x="427.929688"/>
      <use xlink:href="#ArialMT-20" x="455.712891"/>
      <use xlink:href="#ArialMT-61" x="483.496094"/>
      <use xlink:href="#ArialMT-75" x="539.111328"/>
      <use xlink:href="#ArialMT-63" x="594.726562"/>
      <use xlink:href="#ArialMT-3d" x="644.726562"/>
      <use xlink:href="#ArialMT-30" x="703.125"/>
      <use xlink:href="#ArialMT-2e" x="758.740234"/>
      <use xlink:href="#ArialMT-37" x="786.523438"/>
      <use xlink:href="#ArialMT-34" x="842.138672"/>
     </g>
    </g>
   </g>
  </g>
 </g>
 <defs>
  <clipPath id="p2d2ead9e03">
   <rect x="270" y="259.2" width="1674" height="1663.2"/>
  </clipPath>
 </defs>
</svg>
